name analog
datacolumns 19
datarows 37
range 0.0 0.018000000000000002
endheader
time	ground_force_vx	ground_force_vy	ground_force_vz	ground_force_px	ground_force_py	ground_force_pz	l_ground_force_vx	l_ground_force_vy	l_ground_force_vz	l_ground_force_px	l_ground_force_py	l_ground_force_pz	ground_torque_x	ground_torque_y	ground_torque_z	l_ground_torque_x	l_ground_torque_y	l_ground_torque_z
0.0	-0.0	-0.0	-0.0	-15.675466537475586	24.52375030517578	-403.685546875	3.8272879123687744	-26.622833251953125	-374.3413391113281	-0.0	-0.0	-0.0	-0.0	-0.0	-0.0	115768.7890625	7503.38427734375	-2080.52294921875
0.0005	-0.0	-0.0	-0.0	-15.7010498046875	24.53604888916016	-402.6251220703125	3.903274536132813	-26.39558982849121	-371.9463806152344	-0.0	-0.0	-0.0	-0.0	-0.0	-0.0	115499.953125	7365.73779296875	-2076.15380859375
0.001	-0.0	-0.0	-0.0	-15.81532096862793	24.396692276000977	-403.98529052734375	4.169061660766602	-26.105661392211918	-373.1935729980469	-0.0	-0.0	-0.0	-0.0	-0.0	-0.0	115918.6171875	7123.2275390625	-2029.345458984375
0.0015	-0.0	-0.0	-0.0	-15.71446704864502	24.612455368041992	-401.4136962890625	4.042600631713867	-26.04189682006836	-374.2391357421875	-0.0	-0.0	-0.0	-0.0	-0.0	-0.0	116009.8046875	7000.19189453125	-2097.1474609375
0.002	-0.0	-0.0	-0.0	-15.49782943725586	24.85378837585449	-400.9083251953125	4.700871467590332	-25.6892204284668	-373.3442077636719	-0.0	-0.0	-0.0	-0.0	-0.0	-0.0	115970.9765625	7028.77783203125	-1986.51123046875
0.0025	-0.0	-0.0	-0.0	-15.814908981323242	24.43551254272461	-400.457275390625	4.942002773284912	-25.41095733642578	-373.8927001953125	-0.0	-0.0	-0.0	-0.0	-0.0	-0.0	116210.7890625	6650.84130859375	-1846.2462158203125
0.003	-0.0	-0.0	-0.0	-15.816451072692873	25.03337860107422	-398.9961242675781	5.068836212158203	-25.423152923583984	-373.8880615234375	-0.0	-0.0	-0.0	-0.0	-0.0	-0.0	116437.9453125	6558.4755859375	-1765.8028564453125
0.0035	-0.0	-0.0	-0.0	-15.4982271194458	24.918041229248047	-399.0375061035156	4.967803955078125	-25.273681640625	-374.83837890625	-0.0	-0.0	-0.0	-0.0	-0.0	-0.0	116448.6015625	6495.03173828125	-1680.9521484375
0.004	-0.0	-0.0	-0.0	-16.057891845703125	24.855268478393555	-396.8216552734375	5.070441722869873	-25.1959171295166	-374.0440979003906	-0.0	-0.0	-0.0	-0.0	-0.0	-0.0	116605.4765625	6334.0439453125	-1626.17578125
0.0045000000000000005	-0.0	-0.0	-0.0	-15.64805030822754	24.57351493835449	-396.9742431640625	5.3992414474487305	-24.64175033569336	-373.8383483886719	-0.0	-0.0	-0.0	-0.0	-0.0	-0.0	116403.796875	6144.615234375	-1430.3447265625
0.005	-0.0	-0.0	-0.0	-15.855481147766112	25.20929908752441	-394.60736083984375	5.514319896697998	-25.021215438842773	-375.829345703125	-0.0	-0.0	-0.0	-0.0	-0.0	-0.0	116567.15625	5819.74169921875	-1384.563720703125
0.0055	-0.0	-0.0	-0.0	-15.944842338562012	24.1157283782959	-395.9618835449219	5.905250549316406	-24.906715393066406	-374.3847351074219	-0.0	-0.0	-0.0	-0.0	-0.0	-0.0	116458.078125	5616.27294921875	-1295.339599609375
0.006	-0.0	-0.0	-0.0	-16.185779571533203	24.662322998046875	-394.6081848144531	6.212449550628662	-24.91856575012207	-373.98822021484375	-0.0	-0.0	-0.0	-0.0	-0.0	-0.0	116562.0234375	5449.13232421875	-1218.13671875
0.006500000000000001	-0.0	-0.0	-0.0	-15.980470657348633	24.255247116088867	-392.689453125	6.730182647705078	-24.68001937866211	-374.8841552734375	-0.0	-0.0	-0.0	-0.0	-0.0	-0.0	116569.359375	5344.1572265625	-1212.7711181640625
0.007	-0.0	-0.0	-0.0	-16.19756507873535	24.080516815185547	-392.6754455566406	6.665070533752441	-25.171680450439453	-374.7448425292969	-0.0	-0.0	-0.0	-0.0	-0.0	-0.0	117007.8828125	5233.85791015625	-984.499755859375
0.0075	-0.0	-0.0	-0.0	-16.352670669555664	23.94895362854004	-392.5825500488281	6.753706455230713	-24.995037078857425	-375.4435729980469	-0.0	-0.0	-0.0	-0.0	-0.0	-0.0	117187.859375	4864.64892578125	-997.2448120117188
0.008	-0.0	-0.0	-0.0	-16.081058502197266	23.68899154663086	-392.2912292480469	6.892534255981445	-25.198469161987305	-375.8846130371094	-0.0	-0.0	-0.0	-0.0	-0.0	-0.0	117368.7421875	5006.40869140625	-1001.0782470703124
0.0085	-0.0	-0.0	-0.0	-16.034875869750977	24.21615028381348	-390.9246215820313	6.715000152587891	-25.23310089111328	-377.4783935546875	-0.0	-0.0	-0.0	-0.0	-0.0	-0.0	117822.328125	4913.57666015625	-1002.481689453125
0.009000000000000001	-0.0	-0.0	-0.0	-16.119646072387695	23.59671211242676	-390.7257080078125	6.764984130859375	-25.536399841308597	-378.328369140625	-0.0	-0.0	-0.0	-0.0	-0.0	-0.0	118350.5234375	4972.0205078125	-1179.163818359375
0.0095	-0.0	-0.0	-0.0	-16.236312866210938	23.758939743041992	-389.05023193359375	6.475887298583984	-25.0562744140625	-379.19573974609375	-0.0	-0.0	-0.0	-0.0	-0.0	-0.0	118327.7421875	4683.13818359375	-1128.9920654296875
0.01	-0.0	-0.0	-0.0	-16.236312866210938	23.62457656860352	-387.746826171875	6.198395729064941	-25.72422981262207	-380.48583984375	-0.0	-0.0	-0.0	-0.0	-0.0	-0.0	118650.0859375	4929.11376953125	-1194.023193359375
0.0105	-0.0	-0.0	-0.0	-16.00766944885254	23.69746398925781	-386.37884521484375	6.475887298583984	-25.51373291015625	-381.6480102539063	-0.0	-0.0	-0.0	-0.0	-0.0	-0.0	119255.15625	4628.62890625	-1171.7177734375
0.011	-0.0	-0.0	-0.0	-16.186119079589844	23.625246047973636	-385.959716796875	6.348435878753662	-25.558507919311523	-382.4293212890625	-0.0	-0.0	-0.0	-0.0	-0.0	-0.0	119612.3671875	4502.19384765625	-1121.700439453125
0.0115	-0.0	-0.0	-0.0	-15.901676177978516	23.79781723022461	-383.0895690917969	6.586906433105469	-25.878253936767575	-383.4562683105469	-0.0	-0.0	-0.0	-0.0	-0.0	-0.0	120080.7265625	4660.82666015625	-1056.8267822265625
0.012	-0.0	-0.0	-0.0	-15.790260314941406	23.491369247436523	-384.6566162109375	6.692124843597412	-25.62987327575684	-385.6597900390625	-0.0	-0.0	-0.0	-0.0	-0.0	-0.0	120489.3515625	4456.43408203125	-1171.6278076171875
0.0125	-0.0	-0.0	-0.0	-15.918590545654297	23.51946449279785	-383.7517395019531	6.69215202331543	-25.994272232055664	-386.9902038574219	-0.0	-0.0	-0.0	-0.0	-0.0	-0.0	120795.0546875	4358.6533203125	-1108.71484375
0.013000000000000001	-0.0	-0.0	-0.0	-16.247209548950195	23.68045234680176	-380.1766357421875	6.791849613189697	-26.121416091918945	-387.5582885742188	-0.0	-0.0	-0.0	-0.0	-0.0	-0.0	121491.4453125	4397.03564453125	-1016.0602416992188
0.0135	-0.0	-0.0	-0.0	-15.840275764465332	23.72622299194336	-380.28912353515625	6.752894401550293	-26.03324317932129	-388.9548950195313	-0.0	-0.0	-0.0	-0.0	-0.0	-0.0	121669.328125	4090.137451171875	-1099.379150390625
0.014	-0.0	-0.0	-0.0	-15.76874542236328	23.412851333618164	-379.2726745605469	7.129295825958252	-25.828710556030277	-389.1082153320313	-0.0	-0.0	-0.0	-0.0	-0.0	-0.0	122033.28125	3885.49462890625	-885.6170654296875
0.0145	-0.0	-0.0	-0.0	-15.690359115600586	23.39138984680176	-379.6968994140625	7.462450981140137	-25.99468994140625	-390.35150146484375	-0.0	-0.0	-0.0	-0.0	-0.0	-0.0	122365.3671875	3969.515869140625	-920.8805541992188
0.015	-0.0	-0.0	-0.0	-15.622454643249512	23.40203285217285	-379.2857666015625	7.912940502166748	-25.9240837097168	-391.3713684082031	-0.0	-0.0	-0.0	-0.0	-0.0	-0.0	122634.1640625	3657.2705078125	-761.5182495117188
0.0155	-0.0	-0.0	-0.0	-15.512088775634766	23.67991828918457	-378.7646179199219	7.916450023651123	-25.94547843933105	-392.1806945800781	-0.0	-0.0	-0.0	-0.0	-0.0	-0.0	122870.84375	3483.30078125	-636.9653930664062
0.016	-0.0	-0.0	-0.0	-15.00575828552246	23.449195861816406	-377.5493774414063	8.289188385009766	-25.97400665283203	-392.9615478515625	-0.0	-0.0	-0.0	-0.0	-0.0	-0.0	123047.4140625	3343.524658203125	-587.9623413085938
0.0165	-0.0	-0.0	-0.0	-15.226006507873535	23.70868682861328	-378.05853271484375	8.289225578308105	-26.08615493774414	-392.2208251953125	-0.0	-0.0	-0.0	-0.0	-0.0	-0.0	123171.640625	3285.21533203125	-573.9301147460938
0.017	-0.0	-0.0	-0.0	-15.354541778564451	23.22173500061035	-378.0995788574219	8.477075576782227	-26.005563735961918	-392.87738037109375	-0.0	-0.0	-0.0	-0.0	-0.0	-0.0	123387.03125	3167.421875	-620.0469360351562
0.0175	-0.0	-0.0	-0.0	-15.186358451843262	23.21333122253418	-376.8363342285156	8.920604705810547	-26.07549095153809	-392.9905090332031	-0.0	-0.0	-0.0	-0.0	-0.0	-0.0	123082.34375	2894.285400390625	-376.2669067382813
0.018000000000000002	-0.0	-0.0	-0.0	-15.363286972045898	23.679424285888672	-376.9536437988281	8.821589469909668	-25.68116569519043	-392.33245849609375	-0.0	-0.0	-0.0	-0.0	-0.0	-0.0	123250.5703125	2739.82177734375	-365.8996276855469
